<svg xmlns:dc="http://purl.org/dc/elements/1.1/" xmlns:cc="http://creativecommons.org/ns#" xmlns:rdf="http://www.w3.org/1999/02/22-rdf-syntax-ns#" xmlns:svg="http://www.w3.org/2000/svg" xmlns="http://www.w3.org/2000/svg" xmlns:sodipodi="http://sodipodi.sourceforge.net/DTD/sodipodi-0.dtd" xmlns:inkscape="http://www.inkscape.org/namespaces/inkscape" version="1.1" x="0px" y="0px" width="48px" height="48px" viewBox="2.4 -4.8 48.0 64.8" enable-background="new 0 0 48 48" xml:space="preserve" inkscape:version="0.48.5 r10040"><style>.style0{fill:	#281d15;}.style1{fill:	#ffffff;}.style2{fill:	#220c06;}.style3{fill:	#ececec;}.style4{fill:	#d64541;}.style5{fill:	#c0392b;}</style><path d="m -1.8 55.7 c -6.7 -6.7 -3.3 -10.7 -3.3 -10.7 2.5 -3.3 9 1.8 9 1.8 3.9 0 9.9 -8.2 9.9 -8.2 2.4 -3.2 3.1 -5 3.1 -5 -2.6 -9.3 4.3 -17.2 4.3 -17.2 7.2 -8.8 26.4 -21.1 26.4 -21.1 1.7 -1 7 4.1 7 4.1 0 0 5.1 5.3 4.1 7.1 0 0 -12.2 19.2 -21 26.4 0 0 -7.9 6.9 -17.2 4.3 0 0 -1.8 0.6 -5 3.1 0 0 -8.3 6.1 -8.2 9.9 0 0 5.1 6.5 1.8 9 0 0 -4 3.4 -10.7 -3.3 l -0.1 -0.1 z" inkscape:connector-curvature="0" class="style0"/><path d="m 18.6 32.2 c -1.2 -8 5.3 -15.2 5.3 -15.2 6.9 -8.1 24.1 -19.7 24.1 -19.7 1.5 -1 5.4 3.2 5.4 3.2 0 0 3.7 4.4 2.7 5.9 0 0 -12.1 17.4 -20.1 24.1 0 0 -7.3 6.4 -14.8 4.6 -1.6 -0.8 -1.6 -0.8 -2.6 -2.9 z" inkscape:connector-curvature="0" class="style1"/><path d="m -1.8 55.7 0.1 0.1 c 6.7 6.7 10.7 3.3 10.7 3.3 3.3 -2.5 -1.8 -9 -1.8 -9 -0 -3.9 8.2 -10 8.2 -10 3.2 -2.4 5.1 -3 5.1 -3 9.3 2.6 17.2 -4.3 17.2 -4.3 C 46.4 25.7 58.7 6.4 58.7 6.4 c 1 -1.7 -4.1 -7 -4.1 -7 0 0 -0.2 -0.2 -0.2 -0.2 L 53.3 0.3 C 47.5 17.5 39.2 32.1 19.6 34.3 z" inkscape:connector-curvature="0" class="style2"/><path d="m 56 6.4 c 1 -1.6 -2.6 -5.9 -2.6 -5.9 0 0 -0.2 -0.2 -0.1 -0.1 L 39.3 14.4 c -0.5 4.6 10.2 1 10.9 0.1 1.4 -2 5 -6.5 5.9 -8 z" inkscape:connector-curvature="0" class="style3"/><path d="m 39.6 14.4 -13.3 0 c -0.9 0.9 -1.8 1.8 -2.5 2.6 -2.2 2.7 -9.1 11.7 -4 17.3 8.1 -5.7 15.8 -11.7 19.9 -19.9 z" inkscape:connector-curvature="0" class="style4"/><path d="M 39.3 14.4 19.6 34.2 c 4.6 3.8 11.5 0.2 16.1 -3.5 0 -0 0.1 -0.1 0.2 -0.2 4 -3 8.8 -8.6 12.6 -13.9 0.4 -0.5 0.8 -1.1 1.2 -1.6 0.3 -0.4 0.3 -0.4 0.5 -0.7 z" inkscape:connector-curvature="0" class="style5"/></svg>